# xmcd CD database file
#
# Track frame offsets:
#	150
#	13339
#	30706
#	46962
#	62546
#	75956
#	89188
#	104736
#	118269
#	133000
#	148027
#	160683
#	173766
#	187339
#	206229
#	218495
#	238606
#	258437
#
# Disc length: 3596 seconds
#
# Revision: 0
# Processed by: cddbd v1.5.1PL0 Copyright (c) Steve Scherf et al.
# Submitted via: CDex 1.51
#
DISCID=0b0e0a12
DTITLE=Dick Hyman and Tom Pletcher - If Bix played Gershwin
DYEAR=2003
DGENRE=Jazz
TTITLE0=I got plenty o' nuttin'
TTITLE1=Oh, Lady, be good!
TTITLE2=Sweet and low-down
TTITLE3=I got Rythm
TTITLE4=But not for me
TTITLE5=Kongo Kate
TTITLE6=I've got a Crush on you
TTITLE7=Rialto Ripples
TTITLE8=The Half of it, Dearie, Blues
TTITLE9='s wonderful
TTITLE10=Yankee Doodle Rhythm
TTITLE11=I was so young
TTITLE12=Fascinating Rhythm
TTITLE13=In a Mist
TTITLE14=Sunny Disposish
TTITLE15=Embraceable You #1
TTITLE16=Embraceable You #2
TTITLE17=Somebody loves me
EXTD=YEAR: 2003
EXTT0=
EXTT1=
EXTT2=
EXTT3=
EXTT4=
EXTT5=
EXTT6=
EXTT7=
EXTT8=
EXTT9=
EXTT10=
EXTT11=
EXTT12=
EXTT13=
EXTT14=
EXTT15=
EXTT16=
EXTT17=
PLAYORDER=
